<svg xmlns="http://www.w3.org/2000/svg" width="900" height="440" viewBox="0 0 900 440" font-family="'Press Start 2P', ui-monospace, 'Cascadia Mono', Consolas, Menlo, monospace" font-weight="700">
<defs>
<pattern id="scan" width="4" height="4" patternUnits="userSpaceOnUse"><rect width="4" height="2" fill="#000" opacity=".28"/></pattern>
<radialGradient id="vig" cx=".5" cy=".5" r=".75"><stop offset=".6" stop-color="#000" stop-opacity="0"/><stop offset="1" stop-color="#000" stop-opacity=".55"/></radialGradient>
</defs>
<style>
.y{fill:#ffd166}.p{fill:#ff4d9d}.c{fill:#4cc9f0}.w{fill:#f1f1f1}.d{fill:#6c7293}.g{fill:#80ed99}
.blink{animation:b 1s steps(1) infinite}@keyframes b{50%{opacity:0}}
.seg{opacity:0;animation:on .01s forwards}@keyframes on{to{opacity:1}}
.flick{animation:fl 6s infinite}@keyframes fl{0%,96%,100%{opacity:1}97%{opacity:.85}98%{opacity:1}99%{opacity:.9}}
@media (prefers-reduced-motion:reduce){.blink,.flick{animation:none}.seg{animation:none;opacity:1}}
</style>
<rect x="0" y="0" width="900" height="440" rx="18" fill="#12142a"/>
<g class="flick">
<rect x="14" y="14" width="872" height="412" fill="none" stroke="#4cc9f0" stroke-width="4"/>
<rect x="24" y="24" width="852" height="392" fill="none" stroke="#ff4d9d" stroke-width="2" stroke-dasharray="8 6"/>
<text x="60" y="66" class="d" font-size="14">1UP</text><text x="60" y="88" class="w" font-size="16">000097</text>
<text x="450" y="66" text-anchor="middle" class="p" font-size="14" letter-spacing="4">★ PLAYER SELECT ★</text>
<text x="840" y="66" text-anchor="end" class="d" font-size="14">STAGE</text><text x="840" y="88" text-anchor="end" class="w" font-size="16">MM-YGN</text>
<text x="454" y="152" text-anchor="middle" class="p" font-size="58" letter-spacing="6">MIN KHANT</text>
<text x="450" y="148" text-anchor="middle" class="y" font-size="58" letter-spacing="6">MIN KHANT</text>
<g font-size="15">
<text x="70" y="214" class="c">CLASS</text><text x="190" y="214" class="w">FULL-STACK DEV</text>
<text x="70" y="248" class="c">BASE</text><text x="190" y="248" class="w">YANGON, MM</text>
<text x="70" y="282" class="c">GUILD</text><text x="190" y="282" class="w">MTG + LEAP TECH</text>
<text x="70" y="316" class="c">QUEST</text><text x="190" y="316" class="g">SHIP POS BACKEND</text>
</g>
<text x="500" y="196" class="p" font-size="13" letter-spacing="3">SKILLS</text>
<g font-size="13" class="w">
<text x="500" y="226">LARAVEL</text><text x="500" y="254">VUE</text><text x="500" y="282">REACT</text>
<text x="500" y="310">IONIC</text><text x="500" y="338">NESTJS</text><text x="500" y="366">NEXT.JS</text>
</g>
<g><rect class="seg" style="animation-delay:0.30s" x="610" y="214" width="16" height="14" fill="#80ed99"/><rect class="seg" style="animation-delay:0.36s" x="631" y="214" width="16" height="14" fill="#80ed99"/><rect class="seg" style="animation-delay:0.42s" x="652" y="214" width="16" height="14" fill="#80ed99"/><rect class="seg" style="animation-delay:0.48s" x="673" y="214" width="16" height="14" fill="#80ed99"/><rect class="seg" style="animation-delay:0.54s" x="694" y="214" width="16" height="14" fill="#80ed99"/><rect class="seg" style="animation-delay:0.60s" x="715" y="214" width="16" height="14" fill="#80ed99"/><rect class="seg" style="animation-delay:0.66s" x="736" y="214" width="16" height="14" fill="#80ed99"/><rect class="seg" style="animation-delay:0.72s" x="757" y="214" width="16" height="14" fill="#80ed99"/><rect class="seg" style="animation-delay:0.78s" x="778" y="214" width="16" height="14" fill="#80ed99"/><rect class="seg" style="animation-delay:0.84s" x="799" y="214" width="16" height="14" fill="#80ed99"/><rect class="seg" style="animation-delay:0.45s" x="610" y="242" width="16" height="14" fill="#80ed99"/><rect class="seg" style="animation-delay:0.51s" x="631" y="242" width="16" height="14" fill="#80ed99"/><rect class="seg" style="animation-delay:0.57s" x="652" y="242" width="16" height="14" fill="#80ed99"/><rect class="seg" style="animation-delay:0.63s" x="673" y="242" width="16" height="14" fill="#80ed99"/><rect class="seg" style="animation-delay:0.69s" x="694" y="242" width="16" height="14" fill="#80ed99"/><rect class="seg" style="animation-delay:0.75s" x="715" y="242" width="16" height="14" fill="#80ed99"/><rect class="seg" style="animation-delay:0.81s" x="736" y="242" width="16" height="14" fill="#80ed99"/><rect class="seg" style="animation-delay:0.87s" x="757" y="242" width="16" height="14" fill="#80ed99"/><rect class="seg" style="animation-delay:0.93s" x="778" y="242" width="16" height="14" fill="#80ed99"/><rect class="seg" style="animation-delay:0.99s" x="799" y="242" width="16" height="14" fill="#80ed99"/><rect class="seg" style="animation-delay:0.60s" x="610" y="270" width="16" height="14" fill="#4cc9f0"/><rect class="seg" style="animation-delay:0.66s" x="631" y="270" width="16" height="14" fill="#4cc9f0"/><rect class="seg" style="animation-delay:0.72s" x="652" y="270" width="16" height="14" fill="#4cc9f0"/><rect class="seg" style="animation-delay:0.78s" x="673" y="270" width="16" height="14" fill="#4cc9f0"/><rect class="seg" style="animation-delay:0.84s" x="694" y="270" width="16" height="14" fill="#4cc9f0"/><rect class="seg" style="animation-delay:0.90s" x="715" y="270" width="16" height="14" fill="#4cc9f0"/><rect class="seg" style="animation-delay:0.96s" x="736" y="270" width="16" height="14" fill="#4cc9f0"/><rect class="seg" style="animation-delay:1.02s" x="757" y="270" width="16" height="14" fill="#4cc9f0"/><rect x="778" y="270" width="16" height="14" fill="none" stroke="#3a3f66" stroke-width="2"/><rect x="799" y="270" width="16" height="14" fill="none" stroke="#3a3f66" stroke-width="2"/><text x="830" y="283" class="y blink" font-size="13">↑</text><rect class="seg" style="animation-delay:0.75s" x="610" y="298" width="16" height="14" fill="#4cc9f0"/><rect class="seg" style="animation-delay:0.81s" x="631" y="298" width="16" height="14" fill="#4cc9f0"/><rect class="seg" style="animation-delay:0.87s" x="652" y="298" width="16" height="14" fill="#4cc9f0"/><rect class="seg" style="animation-delay:0.93s" x="673" y="298" width="16" height="14" fill="#4cc9f0"/><rect class="seg" style="animation-delay:0.99s" x="694" y="298" width="16" height="14" fill="#4cc9f0"/><rect class="seg" style="animation-delay:1.05s" x="715" y="298" width="16" height="14" fill="#4cc9f0"/><rect class="seg" style="animation-delay:1.11s" x="736" y="298" width="16" height="14" fill="#4cc9f0"/><rect class="seg" style="animation-delay:1.17s" x="757" y="298" width="16" height="14" fill="#4cc9f0"/><rect x="778" y="298" width="16" height="14" fill="none" stroke="#3a3f66" stroke-width="2"/><rect x="799" y="298" width="16" height="14" fill="none" stroke="#3a3f66" stroke-width="2"/><text x="830" y="311" class="y blink" font-size="13">↑</text><rect class="seg" style="animation-delay:0.90s" x="610" y="326" width="16" height="14" fill="#ffd166"/><rect class="seg" style="animation-delay:0.96s" x="631" y="326" width="16" height="14" fill="#ffd166"/><rect class="seg" style="animation-delay:1.02s" x="652" y="326" width="16" height="14" fill="#ffd166"/><rect class="seg" style="animation-delay:1.08s" x="673" y="326" width="16" height="14" fill="#ffd166"/><rect class="seg" style="animation-delay:1.14s" x="694" y="326" width="16" height="14" fill="#ffd166"/><rect x="715" y="326" width="16" height="14" fill="none" stroke="#3a3f66" stroke-width="2"/><rect x="736" y="326" width="16" height="14" fill="none" stroke="#3a3f66" stroke-width="2"/><rect x="757" y="326" width="16" height="14" fill="none" stroke="#3a3f66" stroke-width="2"/><rect x="778" y="326" width="16" height="14" fill="none" stroke="#3a3f66" stroke-width="2"/><rect x="799" y="326" width="16" height="14" fill="none" stroke="#3a3f66" stroke-width="2"/><text x="830" y="339" class="y blink" font-size="13">↑</text><rect class="seg" style="animation-delay:1.05s" x="610" y="354" width="16" height="14" fill="#ffd166"/><rect class="seg" style="animation-delay:1.11s" x="631" y="354" width="16" height="14" fill="#ffd166"/><rect class="seg" style="animation-delay:1.17s" x="652" y="354" width="16" height="14" fill="#ffd166"/><rect class="seg" style="animation-delay:1.23s" x="673" y="354" width="16" height="14" fill="#ffd166"/><rect class="seg" style="animation-delay:1.29s" x="694" y="354" width="16" height="14" fill="#ffd166"/><rect x="715" y="354" width="16" height="14" fill="none" stroke="#3a3f66" stroke-width="2"/><rect x="736" y="354" width="16" height="14" fill="none" stroke="#3a3f66" stroke-width="2"/><rect x="757" y="354" width="16" height="14" fill="none" stroke="#3a3f66" stroke-width="2"/><rect x="778" y="354" width="16" height="14" fill="none" stroke="#3a3f66" stroke-width="2"/><rect x="799" y="354" width="16" height="14" fill="none" stroke="#3a3f66" stroke-width="2"/><text x="830" y="367" class="y blink" font-size="13">↑</text></g>
<text x="450" y="404" text-anchor="middle" class="y blink" font-size="15" letter-spacing="2">PRESS ▶ START</text>
</g>
<rect width="900" height="440" fill="url(#scan)" rx="18"/>
<rect width="900" height="440" fill="url(#vig)" rx="18"/>
</svg>
